<svg xmlns="http://www.w3.org/2000/svg" viewBox="0 0 397.32 34.17"><defs><style>.cls-1{fill:#83a4c0;}</style></defs><g id="Layer_2" data-name="Layer 2"><g id="Layer_1-2" data-name="Layer 1"><path class="cls-1" d="M300.16,2h8c-1.35,4.94-2.66,9.77-4,14.61-1.24,4.54-2.63,9.06-3.67,13.63-.58,2.54-1.84,3.56-5.3,3.43-2.95-.1-4.23-.56-4.86-3.09a122,122,0,0,0-5.88-17.29c-2,6.69-4.07,13.38-6.08,20a3.83,3.83,0,0,1-.78.25c-7.26.28-7.31.28-8.91-5.27C266.33,20.1,264.07,12,261.8,3.8a10.92,10.92,0,0,1-.14-1.9c1.69,0,3.28.13,4.83,0,2.35-.23,3.22.61,3.59,2.36,1.25,5.85,2.63,11.68,4,17.52a15.64,15.64,0,0,0,.87,2.19c2.18-7.43,4.29-14.62,6.39-21.76A2.83,2.83,0,0,1,282,2c7.39,0,5.73-1.11,7.56,4.76,1.71,5.51,3.21,11.06,5.41,16.67C296.71,16.33,298.41,9.28,300.16,2Z"/><path class="cls-1" d="M95.67,33.42H88.29V26.51c0-2.59,0-5.19,0-7.78-.06-2.86-1.31-3.87-4.59-3.85s-4.9,1.38-4.92,4c0,4.73,0,9.47,0,14.42H70.92c0-4.89,0-9.78,0-14.68,0-3-1.51-4.08-5.21-3.77-2.48.21-3.91,1.18-3.88,3.35,0,5,0,10,0,15.13h-7.7v-23H61c.17.57.37,1.21.43,1.41,2.88-.71,5.79-2,8.69-2,2.71,0,5.41,1.44,8.62,2.4,2.39-1.94,5.92-3,10.4-2.29,4,.66,6.28,2.69,6.47,5.61C95.93,21.41,95.67,27.26,95.67,33.42Z"/><path class="cls-1" d="M36.78,33.37c-.94.1-1.36.17-1.79.18-6.46.17-6.53.19-8.59-4.69-.61-1.44-1.39-2.13-3.41-2-3.11.13-6.24.11-9.36,0-1.76-.05-2.61.36-3.23,1.81C8.09,34.15,8,34.13,0,33.3c1.27-2.77,2.51-5.48,3.76-8.18C6.86,18.44,10.13,11.8,13,5.06c1.1-2.6,2.75-3.62,6-3.18a23.19,23.19,0,0,0,3,0C26.94,12.36,31.78,22.71,36.78,33.37Zm-18-22.56-.91,0c-1.41,3.47-2.83,6.94-4.32,10.59h9.78Z"/><path class="cls-1" d="M124.57,11.91c8.53-4.28,16.05-1.93,18,5.51a20.75,20.75,0,0,1,.2,8.49c-1.13,6.93-9.78,11-18.21,5.8-1.53,3-4.63,1.57-7.48,1.77V0h7.5Zm.13,10c0,.94,0,1.89,0,2.83-.12,2.24.74,3.89,3.88,4.19,3.52.33,6.05-.81,6.43-3.37a23.84,23.84,0,0,0-.09-7.35c-.4-2.42-2.76-3.53-5.9-3.28s-4.26,1.35-4.31,4.15C124.69,20,124.7,20.92,124.7,21.86Z"/><path class="cls-1" d="M371.3,33.57V0h7.62V12c4.15-2.52,8.41-3.13,12.61-1.18s5.78,5.46,5.79,9.28a36.52,36.52,0,0,1-.57,6.68c-1.23,6.58-10.8,9.62-17,5.34a5.69,5.69,0,0,0-1-.4C377.38,34.85,374.21,33.18,371.3,33.57ZM379,22.08h0c0,.86,0,1.72,0,2.57,0,2.92,1.15,4.05,4.15,4.24,3.54.22,5.86-.95,6.21-3.61a24.08,24.08,0,0,0-.14-7.09c-.41-2.43-2.73-3.54-5.86-3.32S379,16.24,379,19C379,20,379,21.06,379,22.08Z"/><path class="cls-1" d="M351.8,23.71H333.49c.69,5.43,7,6.77,14.2,2.93L351,29.48c-2.17,3.31-8.11,5.25-13.56,4.55-7.6-1-12.14-5.32-12.26-11.73-.14-6.84,3.82-11.11,11.52-12.39s14.37,2.85,15,9.26C351.92,20.53,351.8,21.92,351.8,23.71Zm-7.92-4.28c0-3.29-1.31-4.5-4.68-4.56s-5.24,1.37-5.38,4.56Z"/><path class="cls-1" d="M207.16,29.27c-.24,1.77,1.62,4.18-2.53,4.76-4.62.66-9.27-1.11-9.79-4.13a81.84,81.84,0,0,1-.66-9.79c-.07-1.62,0-3.25,0-5l-3.82-.36V10.45L194,10V4.71h7.83c.1,1.76.21,3.51.32,5.37l4.77.25v4.38l-4.86.3a109.32,109.32,0,0,0,.18,12c.11.93,2.56,1.69,3.93,2.53Z"/><path class="cls-1" d="M170.8,10.2V33.12c-.29.16-.46.32-.64.33-7,.52-7,.51-7-5.12,0-5,.13-10.12-.09-15.17-.1-2.41.91-3.29,3.84-3A38.74,38.74,0,0,0,170.8,10.2Z"/></g></g></svg>