<?xml version="1.0" encoding="utf-8"?>
<!-- Generator: Adobe Illustrator 25.2.3, SVG Export Plug-In . SVG Version: 6.00 Build 0)  -->
<svg version="0 0 397.32 34.17" id="Layer_1" xmlns="http://www.w3.org/2000/svg" xmlns:xlink="http://www.w3.org/1999/xlink" x="0px" y="0px"
	 viewBox="0 0 200 200" style="enable-background:new 0 0 200 200;">
<style type="text/css">
	.st0{display:none;fill:#FEFEFE;}
	.st1{fill:#0942AD;}
	.st2{fill:#0842AD;}
	.st3{fill:#0841AD;}
	.st4{fill:#F4F6FB;}
	.st5{fill:#F3F6FA;}
	.st6{fill:#F2F5FA;}
	.st7{fill:#EEF2F9;}
	.st8{fill:#EFF3F9;}
	.st9{fill:#F9FAFC;}
	.st10{fill:#F6F8FB;}
	.st11{fill:#E8EDF7;}
	.st12{fill:#F0F4FA;}
	.st13{fill:#FCFDFD;}
	.st14{fill:#FDFDFE;}
	.st15{fill:#FBFCFD;}
</style>
<g>
	<path class="st0" d="M1.5,443c0-160.9,0-321.7,0-482.6c665.7,0,1331.3,0,1997,0c0,160.9,0,321.7,0,482.6
		C1332.8,443,667.2,443,1.5,443z M542.3,322.3c0-14.6,0-28.9,0-43.1c0-16.5-0.1-33,0.1-49.5c0.1-9.1,3.7-16.6,11.5-21.7
		c10.7-7,25-2.6,29,9.3c1.4,4.1,1.9,8.7,2,13.1c0.2,17.1,0.1,34.2,0.1,51.3c0,5.5,0.5,10.8,2.4,16.1c4.1,11.7,11.5,19.5,23.6,22.9
		c15.5,4.4,30.8,3.1,46.1-0.7c0.7-0.2,1.5-1.6,1.5-2.5c0.1-8.3,0.1-16.5,0.1-24.8c0-1.5,0-3,0-4.5c-2.1-0.2-3.9-0.3-5.6-0.6
		c-5.7-1.1-7.7-3-8.5-8.8c-0.4-3-0.6-6-0.6-9c-0.1-12.5,0.1-25.1-0.1-37.6c-0.1-6.3-0.3-12.6-1.1-18.9c-1.7-13.3-6.3-25.4-15.4-35.5
		c-11.4-12.7-25.6-19.5-42.6-20.6c-20.8-1.4-40.2,2.6-57.5,14.8c-0.4,0.3-1,0.5-1.4,0.8c-8.9-7.8-14.1-10.8-23.2-13.1
		c-13.2-3.4-26.5-3.5-39.9-1.4c-11.6,1.9-22.3,6-32.1,12.7c-4.6-6.1-10.6-9.7-17.8-11.6c-15-4-29.7-2.2-44.1,2.8
		c-0.8,0.3-1.5,1.9-1.5,2.8c-0.1,7.9-0.1,15.7-0.1,23.6c0,1.6,0,3.2,0,4.8c1.6,0.1,2.7,0.1,3.9,0.3c5.4,0.7,7.3,2.3,8.4,7.7
		c0.6,2.9,0.7,6,0.7,9c0,36.1,0,72.3,0,108.4c0,1.1,0,2.3,0,3.4c19.4,0,38.5,0,57.8,0c0-1.2,0-2.3,0-3.3c0-28.6,0-57.1,0-85.7
		c0-9.6,2.9-17.9,10.8-24c12.8-9.9,31.5-3.5,34.9,12.1c0.8,3.6,0.9,7.3,1,11c0.1,28.8,0,57.7,0,86.5c0,1.1,0,2.3,0,3.5
		C504.1,322.3,523,322.3,542.3,322.3z M1383.6,257.8c5.3,9.3,10.5,18.2,15.5,27.3c7.1,12.9,14,25.9,20.9,39c1,1.9,2.1,2.6,4.3,2.5
		c4.6-0.2,9.1-0.2,13.7,0c2,0.1,2.8-0.6,3.6-2.4c15.1-34.2,30.3-68.3,45.4-102.4c7.7-17.5,15.4-34.9,22.9-52.5
		c1.1-2.6,1.1-5.7,1.6-8.5c-0.9-0.2-1.1-0.3-1.3-0.3c-20,0-40.1,0-60.1-0.1c-1.9,0-2.3,1-2.7,2.3c-7.5,21.1-14.9,42.2-22.4,63.3
		c-0.3,0.9-0.7,1.8-1.4,3.5c-0.8-1.6-1.2-2.4-1.6-3.3c-3.5-7.9-6.9-15.8-10.4-23.7c-4.9-11.1-9.7-22.2-14.6-33.3
		c-1.5-3.5-3.5-5.9-8.1-5.3c-4.5,0.5-9.1,0.2-13.7,0.1c-2.1-0.1-3.2,0.6-4.1,2.6c-8.9,19.9-18,39.7-27,59.6c-0.4,0.9-0.9,1.7-1.5,3
		c-8.2-23.3-16.2-46-24.2-68.5c-20.9,0-41.2,0-62.4,0c0.7,3.2,0.8,6.4,1.9,9.1c16.3,38,32.8,75.9,49.2,113.8
		c5.8,13.5,11.6,27.1,17.4,40.6c0.7,1.8,1.5,2.5,3.6,2.5c4.8-0.2,9.5-0.2,14.3,0c2,0.1,3-0.7,4-2.4c11.4-20.5,22.9-41,34.4-61.4
		C1381.7,261.1,1382.6,259.5,1383.6,257.8z M359.1,322.4c0.6-5.2,0-9.8-2.2-14.4c-14.1-29.7-28.1-59.5-42-89.3
		c-20.5-44-40.8-88.1-61.2-132.2c-0.9-2-2-2.6-4.1-2.6c-7,0.2-14,0.1-21,0c-1.9,0-2.8,0.5-3.7,2.3c-30,64.7-60,129.3-90.1,193.9
		c-4.4,9.5-8.5,19.1-13.2,28.5c-2.2,4.4-2.2,8.8-2.1,13.5c0.4,0.1,0.7,0.2,1,0.2c18.9,0,37.7,0,56.6,0.1c1.8,0,2.3-1,2.9-2.2
		c3.9-8.4,7.9-16.9,11.7-25.3c0.8-1.7,1.7-2.2,3.5-2.2c29.6,0.1,59.1,0.1,88.7,0c1.9,0,2.7,0.7,3.4,2.3c3.7,8.2,7.6,16.3,11.3,24.6
		c0.9,2.1,2,3,4.5,3c7.9-0.2,15.7-0.1,23.6-0.1C337.3,322.4,348.1,322.4,359.1,322.4z M1714.9,77.7c0,1.4,0,2.6,0,3.8
		c0,57.6,0,115.2,0,172.8c0,18.4,0,36.7,0,55.1c0,1.7,0.1,2.7,2.1,3.4c28.2,9.1,57,14.4,86.8,12.6c15.3-0.9,29.9-4.8,43.4-12.1
		c13.4-7.2,23-18,28.2-32.4c6.1-17,7.3-34.5,4.6-52.2c-3.8-25.3-15.5-46.1-37.4-60.3c-15.6-10.1-32.7-13-50.8-9.9
		c-6.6,1.1-13.1,3.3-19.9,5c0-28.4,0-57,0-85.7C1752.8,77.7,1734,77.7,1714.9,77.7z M686.8,77.7c0,1,0,1.8,0,2.6
		c0,76.3,0,152.6-0.1,229c0,2.1,0.7,3,2.7,3.6c22.4,7.1,45.2,12,68.8,12.7c16.9,0.5,33.6-0.9,49.5-7.2c17.1-6.8,30.6-17.4,38-34.8
		c4.3-10.3,6.2-21.2,6.7-32.3c1.2-23.7-3.8-45.7-18.6-64.8c-18.2-23.5-42.2-32.7-71.4-27.9c-6.4,1-12.5,3.2-19.1,4.8
		c0-28.4,0-57,0-85.7C724.4,77.7,705.8,77.7,686.8,77.7z M1003.2,110.7c-2.3,16.6-4.5,33.1-6.8,49.8c-9.4,0-18.5,0-27.8,0
		c0,12.3,0,24.4,0,36.5c9.3,1.6,18.5,3.1,27.8,4.7c0,1.3,0,2.2,0,3.2c0,16.8,0,33.6,0,50.4c0,10.1,1,20.2,4.5,29.8
		c6.5,17.8,18.4,29.6,37.1,34.5c17.7,4.7,35.5,4.9,53.4,2c6.7-1.1,13.2-2.7,20-4.1c-2-14.3-3.8-28.1-5.8-42.1
		c-1.3,0.4-2.4,0.7-3.5,1c-7.4,2.3-14.9,3.6-22.7,3.3c-16.5-0.7-24.7-8.3-25.1-24.3c-0.4-17.7-0.1-35.3-0.1-53
		c0-0.2,0.2-0.3,0.4-0.8c15.9,0,32,0,48.1,0c0-13.9,0-27.5,0-41.4c-16.3,0-32.4,0-48.7,0c0-16.6,0-33,0-49.6
		C1037.1,110.7,1020.3,110.7,1003.2,110.7z M1679.2,255.4c3.2-12.5,4.8-24.8,3.6-37.3c-1.5-16.1-6.7-30.7-19.2-42
		c-6.6-5.9-13.9-10.7-22.3-13.4c-21.5-7.1-43.2-7.9-64.9-0.8c-24.6,8.1-42.9,23-51.6,48.1c-6.7,19.2-7,38.6-1.9,58.2
		c4.5,17.1,14.3,30.6,28.8,40.7c10.1,7.1,21.3,11.6,33.2,14.1c32.4,7,63.5,2.1,93.5-11.1c1.9-0.8,1.6-2.1,1.4-3.5
		c-1-6.5-1.9-13.1-2.9-19.6c-0.9-6.2-1.9-12.4-2.8-18.5c-4.3,1.5-8.3,2.9-12.4,4.2c-16.4,5-33.1,7.7-50.3,6.1
		c-7.3-0.7-14.4-2.2-21-5.4c-7.2-3.5-12.5-12.5-11.6-19.7C1612.2,255.4,1645.6,255.4,1679.2,255.4z M941.8,322.3
		c0-53.2,0-106.2,0-159.1c-19.2,0-38.2,0-57.2,0c0,53.2,0,106.1,0,159.1C903.8,322.3,922.7,322.3,941.8,322.3z M1243.7,195.4
		c-37.5,0-74.9,0-112.4,0c0,16.2,0,32.2,0,48.4c37.5,0,74.9,0,112.4,0C1243.7,227.6,1243.7,211.5,1243.7,195.4z M945.7,113.6
		c0.7-21.4-16.2-32.2-32.5-32.4c-18.7-0.2-32.3,13.1-32.4,31.5c-0.1,20,13.1,34,32.2,34.1C932,147.1,945.5,133.3,945.7,113.6z"/>
	<path class="st1" d="M542.3,322.3c-19.3,0-38.2,0-57.5,0c0-1.2,0-2.3,0-3.5c0-28.8,0-57.7,0-86.5c0-3.7-0.2-7.4-1-11
		c-3.4-15.6-22.1-22-34.9-12.1c-7.9,6.1-10.8,14.4-10.8,24c0,28.6,0,57.1,0,85.7c0,1.1,0,2.1,0,3.3c-19.3,0-38.4,0-57.8,0
		c0-1.2,0-2.3,0-3.4c0-36.1,0-72.3,0-108.4c0-3-0.1-6-0.7-9c-1.1-5.4-3-6.9-8.4-7.7c-1.1-0.2-2.3-0.2-3.9-0.3c0-1.6,0-3.2,0-4.8
		c0-7.9-0.1-15.7,0.1-23.6c0-1,0.8-2.6,1.5-2.8c14.4-4.9,29.1-6.7,44.1-2.8c7.2,1.9,13.2,5.5,17.8,11.6c9.8-6.7,20.5-10.8,32.1-12.7
		c13.4-2.1,26.7-2,39.9,1.4c9.1,2.3,14.2,5.4,23.2,13.1c0.4-0.2,0.9-0.5,1.4-0.8c17.3-12.2,36.7-16.2,57.5-14.8
		c17,1.1,31.3,7.9,42.6,20.6c9,10.1,13.7,22.2,15.4,35.5c0.8,6.2,1.1,12.6,1.1,18.9c0.2,12.5,0,25.1,0.1,37.6c0,3,0.2,6,0.6,9
		c0.8,5.7,2.8,7.7,8.5,8.8c1.7,0.3,3.5,0.4,5.6,0.6c0,1.4,0,3,0,4.5c0,8.3,0,16.5-0.1,24.8c0,0.9-0.8,2.3-1.5,2.5
		c-15.3,3.8-30.6,5.1-46.1,0.7c-12-3.4-19.5-11.2-23.6-22.9c-1.9-5.3-2.4-10.7-2.4-16.1c0-17.1,0.1-34.2-0.1-51.3
		c-0.1-4.4-0.6-9-2-13.1c-4-11.9-18.3-16.4-29-9.3c-7.8,5.1-11.4,12.7-11.5,21.7c-0.2,16.5-0.1,33-0.1,49.5
		C542.3,293.4,542.3,307.7,542.3,322.3z M385.8,177.9c2,0,4.1-0.1,6.1,0c8,0.6,13,3.3,14.5,10.9c0.7,3.4,1.6,6.9,1.6,10.4
		c0.1,33.7,0.1,67.4,0.1,101.1c0,0.9,0,1.9,0,3c1.1-0.1,1.8-0.1,2.7-0.2c0-1.2,0-2.3,0-3.3c0-19.8,0-39.6,0-59.4
		c0-17.5,6.2-32.5,19.4-44.2c15.3-13.6,33.3-16.1,52.6-11.4c13.8,3.4,23.1,11.9,26.3,25.8c1.7,7.1,2.6,14.5,2.7,21.9
		c0.3,22.5,0.1,45.1,0.1,67.6c0,1,0,2.1,0,3c2.7,0.8,2.8-0.6,2.8-2.4c0-22.2-0.4-44.5,0.3-66.7c0.6-18.2,8.9-33.1,24.3-43.2
		c13.5-8.9,28.6-9.8,44-6.5c14.6,3.1,23.7,12.4,27.8,26.4c1.7,6,2.4,12.4,2.5,18.6c0.3,16.5,0,33,0.2,49.5c0,4.4,0.5,8.9,1.5,13.2
		c1.1,5.2,3.8,9.8,9.2,11.5c4.2,1.3,8.6,1.7,13.2,2.5c0-1.7,0-2.5,0-3.2c-2.5-0.3-4.8-0.4-7.1-0.8c-7.5-1.1-11.6-4.7-13.1-12
		c-0.7-3.5-1.1-7.1-1.1-10.7c-0.1-16.9,0-33.8-0.1-50.7c0-4.7-0.3-9.5-1.2-14.2c-2.9-14.7-10.6-26-25-31.6
		c-8.9-3.4-18.3-4.5-27.8-3.1c-21.7,3.1-37.4,14.1-45.8,34.8c-0.6,1.5-1.1,3-1.5,4.1c-1.8-5.4-3.3-11.1-5.5-16.5
		c-2.5-6-6.6-11.1-12.1-14.6c-12.8-8-26.9-9.1-41.3-6.9c-20.8,3.2-34.8,15.6-43.3,34.5c-0.5,1-0.9,2-1.4,3c-0.6-1.1-0.5-2.1-0.6-3.2
		c-0.1-7.6,0-15.2-0.4-22.7c-0.5-8.7-3.7-13.5-10.9-15.6c-3.8-1.1-8-1.1-12.1-1.5C385.3,174.8,385.3,176.1,385.8,177.9z"/>
	<path class="st2" d="M1383.6,257.8c-1,1.7-1.9,3.3-2.8,4.9c-11.5,20.5-23,40.9-34.4,61.4c-1,1.8-2,2.5-4,2.4
		c-4.8-0.2-9.5-0.2-14.3,0c-2,0.1-2.8-0.7-3.6-2.5c-5.7-13.6-11.5-27.1-17.4-40.6c-16.4-37.9-32.9-75.8-49.2-113.8
		c-1.2-2.7-1.3-5.9-1.9-9.1c21.2,0,41.6,0,62.4,0c7.9,22.5,16,45.2,24.2,68.5c0.6-1.2,1.1-2.1,1.5-3c9-19.8,18.1-39.7,27-59.6
		c0.9-2,2-2.7,4.1-2.6c4.6,0.2,9.2,0.5,13.7-0.1c4.6-0.5,6.5,1.8,8.1,5.3c4.8,11.1,9.7,22.2,14.6,33.3c3.5,7.9,6.9,15.8,10.4,23.7
		c0.4,0.8,0.8,1.7,1.6,3.3c0.7-1.7,1-2.6,1.4-3.5c7.5-21.1,15-42.2,22.4-63.3c0.5-1.3,0.9-2.3,2.7-2.3c20,0.1,40.1,0.1,60.1,0.1
		c0.2,0,0.4,0.1,1.3,0.3c-0.5,2.8-0.5,5.9-1.6,8.5c-7.5,17.5-15.2,35-22.9,52.5c-15.1,34.2-30.3,68.3-45.4,102.4
		c-0.8,1.8-1.7,2.4-3.6,2.4c-4.6-0.2-9.1-0.2-13.7,0c-2.1,0.1-3.3-0.6-4.3-2.5c-6.9-13-13.8-26-20.9-39
		C1394.1,276,1388.9,267.1,1383.6,257.8z M1291.4,179.8c0.4,1,0.7,1.9,1.1,2.8c4.9,11.9,10,23.7,14.8,35.6
		c9.1,22.4,18.1,44.9,27.2,67.4c0.5,1.1,1.5,2,2.2,3c1-0.9,2.4-1.5,3-2.6c14.1-24.9,28.1-49.8,42.2-74.8c0.4-0.8,0.9-1.5,1.4-2.3
		c4.8,8.3,9.7,16.3,14.2,24.4c9.7,17.6,19.3,35.2,29,52.8c0.6,1.1,2,2.2,3,2.3c0.7,0.1,1.9-1.6,2.3-2.6
		c9.5-23.6,18.8-47.2,28.2-70.7c4.7-11.7,9.3-23.4,14-35.1c-2.3-0.8-3.4-0.2-4.3,2c-6.7,16.9-13.5,33.8-20.3,50.7
		c-6.9,17.1-13.7,34.2-20.7,51.5c-0.5-0.7-0.9-1.3-1.2-1.8c-11.2-20.5-22.4-40.9-33.5-61.4c-2.6-4.8-5.1-9.6-7.7-14.4
		c-0.7-1.2-1.1-3-3-2.3c-1.1,0.4-2.3,1.3-2.8,2.2c-13.8,24.8-27.6,49.7-41.3,74.6c-0.5,1-1.2,1.9-1.9,3.1c-0.3-0.7-0.6-1.1-0.7-1.5
		c-10.8-26.5-21.5-53.1-32.3-79.6c-2.8-6.9-5.6-13.8-8.2-20.8C1295.2,179.8,1294.1,178.9,1291.4,179.8z"/>
	<path class="st3" d="M359.1,322.4c-11,0-21.8,0-32.5,0c-7.9,0-15.8-0.1-23.6,0.1c-2.5,0.1-3.5-0.8-4.5-3
		c-3.7-8.2-7.6-16.3-11.3-24.6c-0.7-1.6-1.5-2.3-3.4-2.3c-29.6,0.1-59.1,0.1-88.7,0c-1.8,0-2.7,0.5-3.5,2.2
		c-3.8,8.5-7.8,16.9-11.7,25.3c-0.6,1.3-1,2.2-2.9,2.2c-18.9-0.1-37.7-0.1-56.6-0.1c-0.3,0-0.5-0.1-1-0.2c-0.2-4.7-0.2-9,2.1-13.5
		c4.7-9.3,8.8-19,13.2-28.5c30-64.6,60.1-129.3,90.1-193.9c0.8-1.8,1.8-2.4,3.7-2.3c7,0.1,14,0.1,21,0c2.2,0,3.2,0.6,4.1,2.6
		c20.3,44.1,40.7,88.2,61.2,132.2c13.9,29.8,27.9,59.6,42,89.3C359,312.6,359.7,317.2,359.1,322.4z M325.5,299.2
		c-3.5-6.9-7.1-13.6-10.4-20.5c-6.4-13.5-12.6-27-19-40.6c-18.3-39.2-36.5-78.4-54.8-117.5c-0.4-0.9-1.4-1.5-2.1-2.3
		c-0.7,0.7-1.5,1.4-1.9,2.2c-4.1,8.2-8.2,16.4-12,24.7c-23.4,50.4-46.6,100.8-70,151.2c-0.4,0.9-0.8,1.9-1.2,2.8
		c3,0.8,4.4,0,5.7-2.7c4.2-9.3,8.7-18.4,13-27.6c1-2.1,2-2.8,4.3-2.8c29.6,0.1,59.1,0.1,88.7,0.1c12.2,0,24.5,0,36.7,0.1
		c1.1,0,2.7,0.8,3.1,1.7c4.7,9.4,9.4,18.8,13.8,28.4C320.6,299,322,300.3,325.5,299.2z"/>
	<path class="st3" d="M1714.9,77.7c19.1,0,38,0,57,0c0,28.7,0,57.3,0,85.7c6.8-1.7,13.2-3.8,19.9-5c18.1-3.1,35.2-0.2,50.8,9.9
		c22,14.2,33.6,34.9,37.4,60.3c2.7,17.7,1.5,35.2-4.6,52.2c-5.2,14.4-14.8,25.2-28.2,32.4c-13.5,7.3-28.1,11.1-43.4,12.1
		c-29.8,1.8-58.6-3.6-86.8-12.6c-2-0.6-2.1-1.7-2.1-3.4c0-18.4,0-36.7,0-55.1c0-57.6,0-115.2,0-172.8
		C1714.9,80.3,1714.9,79.2,1714.9,77.7z M1741.5,97.2c0,0.8-0.1,1.4-0.1,2c0,63.4,0,126.8,0,190.2c0,1.9,0.7,2.7,2.4,3.3
		c5.2,1.8,10.4,3.7,15.6,5.5c16.7,5.6,33.8,7.1,51.1,3.2c20.7-4.7,35.3-16.3,41.3-37.2c1.3-4.6,2-9.5,2.3-14.3
		c0.8-15.1-0.7-29.6-9.4-42.8c-11.4-17.2-27.5-25.4-47.7-26.2c-17.9-0.7-33.9,5.1-48.9,14.5c-0.8,0.5-1.7,1.1-2.9,1.9
		c0-33.7,0-66.8,0-100C1743.8,97.2,1742.8,97.2,1741.5,97.2z"/>
	<path class="st3" d="M686.8,77.7c19,0,37.6,0,56.5,0c0,28.7,0,57.3,0,85.7c6.5-1.7,12.7-3.8,19.1-4.8c29.3-4.8,53.2,4.4,71.4,27.9
		c14.8,19.1,19.8,41.1,18.6,64.8c-0.6,11.1-2.4,22-6.7,32.3c-7.3,17.4-20.9,28-38,34.8c-15.9,6.3-32.6,7.8-49.5,7.2
		c-23.6-0.8-46.4-5.6-68.8-12.7c-2-0.6-2.7-1.5-2.7-3.6c0.1-76.3,0.1-152.6,0.1-229C686.8,79.5,686.8,78.8,686.8,77.7z M713.4,97.2
		c0,0.9-0.1,1.7-0.1,2.4c0,63.2,0,126.5,0,189.7c0,0.2-0.1,0.4,0,0.6c0.5,0.9,0.9,2.1,1.7,2.5c2.9,1.3,5.9,2.4,8.9,3.5
		c19.8,7.5,40,10.2,60.9,4.8c19.7-5.1,33.2-16.8,38.5-36.9c2.8-10.8,3.1-21.8,1.6-32.9c-4-29.4-26.1-49.2-55.9-50.2
		c-17.9-0.6-34.1,4.6-48.9,14.4c-0.8,0.5-1.7,1-3.1,1.9c0-33.8,0-66.9,0-99.9C715.6,97.2,714.6,97.2,713.4,97.2z"/>
	<path class="st1" d="M1003.2,110.7c17.2,0,34,0,51,0c0,16.5,0,32.9,0,49.6c16.3,0,32.4,0,48.7,0c0,13.9,0,27.5,0,41.4
		c-16.1,0-32.2,0-48.1,0c-0.2,0.4-0.4,0.6-0.4,0.8c0,17.7-0.4,35.4,0.1,53c0.4,16,8.6,23.6,25.1,24.3c7.7,0.3,15.3-1,22.7-3.3
		c1.1-0.3,2.2-0.6,3.5-1c1.9,14,3.8,27.8,5.8,42.1c-6.8,1.4-13.4,3-20,4.1c-17.9,2.9-35.7,2.6-53.4-2c-18.7-4.9-30.6-16.7-37.1-34.5
		c-3.5-9.6-4.4-19.6-4.5-29.8c-0.1-16.8,0-33.6,0-50.4c0-1,0-1.9,0-3.2c-9.3-1.6-18.4-3.1-27.8-4.7c0-12.2,0-24.3,0-36.5
		c9.2,0,18.3,0,27.8,0C998.7,143.8,1000.9,127.3,1003.2,110.7z M1027.5,183.1c18.9,0,37.6,0,56.5,0c0-1.2,0-2.3,0-3.6
		c-18.9,0-37.7,0-56.9,0c0-16.8,0-33.2,0-49.8c-1.4,0.1-2.4,0.1-3.6,0.2c0,16.7,0,33.1,0,49.8c-12.1,0-24,0-35.8,0
		c0,1.4,0,2.4,0,3.6c12,0,23.8,0,35.9,0c0,1.3,0,2.3,0,3.4c0,21.9-0.1,43.9,0.1,65.8c0,5,0.4,10.1,1.1,15.1
		c2.3,16.1,11.1,26.9,26.4,32.3c8.8,3.1,17.8,3.8,27,3c3.5-0.3,7-0.8,10.5-1.2c0-1.3,0-2.2,0-3.3c-1.2,0.2-2.2,0.3-3.2,0.5
		c-8.5,1.4-17,2.1-25.5,0.2c-15-3.2-26.1-11.3-30.2-26.7c-1.4-5.3-2.2-10.9-2.2-16.4c-0.3-23.8-0.2-47.6-0.2-71.4
		C1027.4,184.3,1027.4,183.9,1027.5,183.1z"/>
	<path class="st1" d="M1679.2,255.4c-33.6,0-67,0-100.4,0c-0.9,7.1,4.5,16.2,11.6,19.7c6.6,3.2,13.8,4.6,21,5.4
		c17.2,1.7,33.9-1,50.3-6.1c4.1-1.3,8.1-2.7,12.4-4.2c0.9,6.1,1.9,12.3,2.8,18.5c1,6.5,1.9,13,2.9,19.6c0.2,1.4,0.5,2.7-1.4,3.5
		c-30.1,13.2-61.1,18.1-93.5,11.1c-12-2.6-23.1-7.1-33.2-14.1c-14.5-10.1-24.4-23.5-28.8-40.7c-5.1-19.5-4.8-39,1.9-58.2
		c8.8-25,27-40,51.6-48.1c21.7-7.1,43.4-6.3,64.9,0.8c8.4,2.8,15.7,7.5,22.3,13.4c12.5,11.3,17.7,25.8,19.2,42
		C1684,230.6,1682.3,242.9,1679.2,255.4z M1656,296.2c-3,0.7-5.7,1.4-8.5,2c-24.3,5-48.2,6.1-71.4-5.2c-20.3-9.9-28.5-31.5-27-52.7
		c36.2,0,72.4,0,108.6,0c0.3-2.6,0.7-4.9,0.9-7.2c2.5-22.1-10.2-43-30.6-50.3c-10.4-3.7-21.1-4.1-31.9-2.5
		c-18.9,2.7-33.8,11.5-43.2,28.5c-4.4,7.9-6.7,16.5-7.5,25.5c-1.1,12.7,0,25.2,5.3,37c7.3,16.3,20.8,25.1,37.2,30.1
		c16.1,4.8,32.6,4.8,49,2.1c6.6-1.1,13-2.7,19.7-4C1656.4,298.1,1656.2,297.3,1656,296.2z"/>
	<path class="st2" d="M941.8,322.3c-19.1,0-38,0-57.2,0c0-53,0-105.9,0-159.1c19,0,38,0,57.2,0C941.8,216.1,941.8,269.1,941.8,322.3
		z M911.9,181.6c0,40.5,0,80.8,0,121c2.7,0.9,2.6-0.7,2.6-2.4c0-18.2,0-36.3,0-54.5c0-20.6,0-41.2,0-61.7
		C914.5,182.4,914.6,180.8,911.9,181.6z"/>
	<path class="st3" d="M1243.7,195.4c0,16.1,0,32.2,0,48.4c-37.5,0-74.8,0-112.4,0c0-16.2,0-32.2,0-48.4
		C1168.8,195.4,1206.2,195.4,1243.7,195.4z M1151.5,222.4c24.2,0,48.1,0,72.1,0c0-1.3,0-2.5,0-3.7c-24.1,0-48,0-72.1,0
		C1151.5,219.9,1151.5,221.1,1151.5,222.4z"/>
	<path class="st2" d="M945.7,113.6c-0.1,19.7-13.7,33.4-32.7,33.3c-19.1-0.1-32.4-14.2-32.2-34.1c0.1-18.4,13.7-31.7,32.4-31.5
		C929.5,81.4,946.3,92.3,945.7,113.6z M909.7,114.3c-0.1,2,1,3.2,3.2,3.3c2,0,3.3-0.8,3.4-3c0.1-2.2-0.8-3.6-3.1-3.7
		C911.1,110.8,909.8,111.7,909.7,114.3z"/>
	<path class="st4" d="M385.8,177.9c-0.5-1.8-0.5-3.1,1.6-2.9c4,0.4,8.2,0.3,12.1,1.5c7.3,2.1,10.4,6.9,10.9,15.6
		c0.4,7.6,0.3,15.1,0.4,22.7c0,1,0,2,0.6,3.2c0.5-1,0.9-2,1.4-3c8.5-18.9,22.5-31.2,43.3-34.5c14.4-2.2,28.6-1.1,41.3,6.9
		c5.6,3.5,9.6,8.6,12.1,14.6c2.2,5.4,3.7,11.1,5.5,16.5c0.4-1.1,0.9-2.6,1.5-4.1c8.4-20.7,24.1-31.7,45.8-34.8
		c9.5-1.3,18.9-0.3,27.8,3.1c14.4,5.6,22.1,16.9,25,31.6c0.9,4.6,1.2,9.4,1.2,14.2c0.1,16.9,0,33.8,0.1,50.7c0,3.6,0.4,7.2,1.1,10.7
		c1.5,7.3,5.6,11,13.1,12c2.3,0.3,4.6,0.5,7.1,0.8c0,0.8,0,1.6,0,3.2c-4.6-0.8-9-1.2-13.2-2.5c-5.4-1.7-8.1-6.3-9.2-11.5
		c-1-4.3-1.4-8.8-1.5-13.2c-0.2-16.5,0.2-33-0.2-49.5c-0.1-6.2-0.8-12.7-2.5-18.6c-4.1-14-13.2-23.3-27.8-26.4
		c-15.5-3.3-30.5-2.4-44,6.5c-15.4,10.1-23.7,25-24.3,43.2c-0.8,22.2-0.3,44.5-0.3,66.7c0,1.8,0,3.2-2.8,2.4c0-0.9,0-2,0-3
		c0-22.5,0.2-45.1-0.1-67.6c-0.1-7.3-1.1-14.7-2.7-21.9c-3.2-13.9-12.5-22.4-26.3-25.8c-19.3-4.8-37.3-2.3-52.6,11.4
		c-13.2,11.7-19.3,26.6-19.4,44.2c0,19.8,0,39.6,0,59.4c0,1.1,0,2.1,0,3.3c-0.9,0.1-1.7,0.1-2.7,0.2c0-1.1,0-2,0-3
		c0-33.7,0-67.4-0.1-101.1c0-3.5-0.9-7-1.6-10.4c-1.5-7.6-6.5-10.2-14.5-10.9C389.9,177.7,387.9,177.9,385.8,177.9z"/>
	<path class="st5" d="M1291.4,179.8c2.6-0.8,3.8,0,4.6,2.3c2.6,7,5.4,13.9,8.2,20.8c10.7,26.5,21.5,53.1,32.3,79.6
		c0.2,0.4,0.4,0.8,0.7,1.5c0.7-1.2,1.3-2.1,1.9-3.1c13.8-24.9,27.5-49.7,41.3-74.6c0.5-1,1.8-1.8,2.8-2.2c1.9-0.7,2.4,1.1,3,2.3
		c2.6,4.8,5.1,9.6,7.7,14.4c11.2,20.5,22.3,41,33.5,61.4c0.3,0.6,0.7,1.1,1.2,1.8c7-17.3,13.8-34.4,20.7-51.5
		c6.8-16.9,13.6-33.8,20.3-50.7c0.9-2.2,2-2.8,4.3-2c-4.7,11.7-9.3,23.4-14,35.1c-9.4,23.6-18.8,47.2-28.2,70.7
		c-0.4,1.1-1.6,2.7-2.3,2.6c-1.1-0.1-2.5-1.2-3-2.3c-9.7-17.6-19.2-35.2-29-52.8c-4.5-8.2-9.4-16.2-14.2-24.4
		c-0.5,0.8-1,1.5-1.4,2.3c-14,24.9-28.1,49.9-42.2,74.8c-0.6,1.1-2,1.7-3,2.6c-0.7-1-1.8-1.9-2.2-3c-9.1-22.5-18.1-45-27.2-67.4
		c-4.8-11.9-9.9-23.7-14.8-35.6C1292.1,181.7,1291.8,180.7,1291.4,179.8z"/>
	<path class="st6" d="M325.5,299.2c-3.5,1.1-4.9-0.3-6.1-2.8c-4.5-9.5-9.1-19-13.8-28.4c-0.4-0.9-2-1.7-3.1-1.7
		c-12.2-0.1-24.5-0.1-36.7-0.1c-29.6,0-59.1,0-88.7-0.1c-2.3,0-3.4,0.7-4.3,2.8c-4.2,9.3-8.8,18.3-13,27.6c-1.2,2.7-2.7,3.5-5.7,2.7
		c0.4-1,0.8-1.9,1.2-2.8c23.3-50.4,46.6-100.8,70-151.2c3.9-8.3,8-16.5,12-24.7c0.4-0.8,1.3-1.5,1.9-2.2c0.7,0.8,1.7,1.4,2.1,2.3
		c18.3,39.2,36.6,78.3,54.8,117.5c6.3,13.5,12.5,27.1,19,40.6C318.4,285.6,322,292.3,325.5,299.2z M175.5,262.3c42.9,0,85.2,0,128,0
		c-21.3-45.7-42.6-91-64.2-137.3C217.8,171.3,196.7,216.6,175.5,262.3z"/>
	<path class="st7" d="M1741.5,97.2c1.3,0,2.4,0,3.6,0c0,33.2,0,66.3,0,100c1.3-0.8,2.1-1.4,2.9-1.9c14.9-9.4,31-15.2,48.9-14.5
		c20.2,0.8,36.3,9,47.7,26.2c8.7,13.2,10.3,27.7,9.4,42.8c-0.3,4.8-0.9,9.7-2.3,14.3c-6.1,20.8-20.7,32.5-41.3,37.2
		c-17.3,3.9-34.4,2.4-51.1-3.2c-5.2-1.8-10.4-3.7-15.6-5.5c-1.7-0.6-2.4-1.4-2.4-3.3c0.1-63.4,0-126.8,0-190.2
		C1741.4,98.6,1741.4,98.1,1741.5,97.2z M1745.2,245.2c0,13.9,0,27.8,0,41.6c0,1.9,0.5,3,2.4,3.7c3.8,1.3,7.6,2.9,11.4,4.2
		c17.4,5.9,35.2,6.7,53.1,2.6c17-3.8,29.4-13.8,34.8-30.2c6.1-18.4,5.9-37.1-3.5-54.9c-6.5-12.1-15.8-21.1-29.1-24.7
		c-24.5-6.8-47-2.2-67.4,13c-0.9,0.7-1.5,2.4-1.5,3.7C1745.2,217.8,1745.2,231.5,1745.2,245.2z"/>
	<path class="st8" d="M713.4,97.2c1.2,0,2.2,0,3.6,0c0,33.1,0,66.1,0,99.9c1.4-0.9,2.3-1.4,3.1-1.9c14.8-9.8,31-15,48.9-14.4
		c29.8,1,51.8,20.7,55.9,50.2c1.5,11.1,1.3,22.1-1.6,32.9c-5.3,20.1-18.8,31.8-38.5,36.9c-20.8,5.4-41,2.6-60.9-4.8
		c-3-1.1-6-2.2-8.9-3.5c-0.8-0.4-1.2-1.6-1.7-2.5c-0.1-0.1,0-0.4,0-0.6c0-63.2,0-126.5,0-189.7C713.3,98.9,713.3,98.2,713.4,97.2z
		 M717.1,245.3c0,13.9,0,27.8,0,41.7c0,1.8,0.6,2.7,2.2,3.5c19.9,9.1,40.6,11.7,62,7.4c19.9-4,33.5-15.1,38.5-35.4
		c2.8-11.4,3.1-22.9,0.7-34.4c-4.2-20.7-15.6-35.9-36.8-41.2c-23.2-5.8-45.1-1.7-64.5,13c-1.5,1.2-2.2,2.4-2.2,4.3
		C717.2,218,717.1,231.6,717.1,245.3z"/>
	<path class="st9" d="M1027.5,183.1c-0.1,0.8-0.2,1.2-0.2,1.6c0,23.8-0.1,47.6,0.2,71.4c0.1,5.5,0.8,11.1,2.2,16.4
		c4.2,15.4,15.2,23.4,30.2,26.7c8.5,1.8,17,1.2,25.5-0.2c1-0.2,2-0.3,3.2-0.5c0,1.1,0,2,0,3.3c-3.5,0.4-7,0.9-10.5,1.2
		c-9.2,0.8-18.2,0.1-27-3c-15.4-5.4-24.2-16.2-26.4-32.3c-0.7-5-1.1-10-1.1-15.1c-0.1-21.9-0.1-43.9-0.1-65.8c0-1.1,0-2.1,0-3.4
		c-12,0-23.8,0-35.9,0c0-1.3,0-2.3,0-3.6c11.8,0,23.7,0,35.8,0c0-16.7,0-33.1,0-49.8c1.2-0.1,2.2-0.1,3.6-0.2c0,16.6,0,33,0,49.8
		c19.2,0,37.9,0,56.9,0c0,1.4,0,2.4,0,3.6C1065.2,183.1,1046.5,183.1,1027.5,183.1z"/>
	<path class="st10" d="M1656,296.2c0.3,1.1,0.4,1.9,0.8,3.2c-6.7,1.4-13.2,3-19.7,4c-16.5,2.7-32.9,2.8-49-2.1
		c-16.5-4.9-30-13.8-37.2-30.1c-5.3-11.8-6.4-24.3-5.3-37c0.8-9,3.1-17.6,7.5-25.5c9.4-17,24.4-25.8,43.2-28.5
		c10.8-1.5,21.5-1.2,31.9,2.5c20.4,7.3,33.1,28.2,30.6,50.3c-0.3,2.3-0.6,4.6-0.9,7.2c-36.3,0-72.5,0-108.6,0
		c-1.5,21.2,6.6,42.7,27,52.7c23.2,11.4,47.1,10.3,71.4,5.2C1650.3,297.6,1653,296.9,1656,296.2z M1655,237.2
		c0.3-2.1,0.5-4.1,0.7-6.1c2.1-19.4-8.5-37.2-26.5-44.4c-7.7-3.1-15.8-4-24-3.8c-17.8,0.6-33.3,6.2-44.6,20.6
		c-7.8,9.8-11.1,21.2-11.8,33.7C1584.3,237.2,1619.6,237.2,1655,237.2z"/>
	<path class="st11" d="M911.9,181.6c2.7-0.9,2.6,0.7,2.6,2.4c0,20.6,0,41.2,0,61.7c0,18.2,0,36.3,0,54.5c0,1.7,0.1,3.3-2.6,2.4
		C911.9,262.4,911.9,222.1,911.9,181.6z"/>
	<path class="st12" d="M1151.5,222.4c0-1.3,0-2.4,0-3.7c24,0,48,0,72.1,0c0,1.2,0,2.4,0,3.7C1199.6,222.4,1175.7,222.4,1151.5,222.4
		z"/>
	<path class="st4" d="M909.7,114.3c0-2.6,1.4-3.5,3.6-3.4c2.3,0.1,3.2,1.5,3.1,3.7c-0.1,2.2-1.4,3.1-3.4,3
		C910.7,117.6,909.6,116.3,909.7,114.3z"/>
	<path class="st2" d="M175.5,262.3c21.2-45.7,42.3-91,63.9-137.3c21.6,46.2,42.8,91.6,64.2,137.3
		C260.7,262.3,218.4,262.3,175.5,262.3z M239.4,184.7c-8.4,18.1-16.6,35.8-24.9,53.8c16.9,0,33.1,0,49.7,0
		C255.8,220.5,247.7,202.7,239.4,184.7z"/>
	<path class="st1" d="M1745.2,245.2c0-13.7,0-27.4,0.1-41.1c0-1.2,0.6-3,1.5-3.7c20.3-15.2,42.9-19.7,67.4-13
		c13.3,3.7,22.7,12.6,29.1,24.7c9.5,17.8,9.7,36.5,3.5,54.9c-5.4,16.3-17.8,26.3-34.8,30.2c-17.9,4.1-35.7,3.3-53.1-2.6
		c-3.8-1.3-7.6-2.9-11.4-4.2c-1.9-0.6-2.4-1.7-2.4-3.7C1745.2,273,1745.2,259.1,1745.2,245.2z M1771.3,243.1c0,9.7,0,19.4,0.1,29.1
		c0,1,0.8,2.6,1.6,2.8c7.9,2.2,15.8,3.8,24.1,3.1c13-1.1,21.8-8.2,24.9-20.8c2.4-9.7,2.2-19.5-0.9-29c-4-12.6-14.1-19.9-27.3-20.2
		c-7-0.2-13.7,1.1-20.3,3.4c-1.8,0.6-2.3,1.5-2.3,3.3C1771.3,224.3,1771.3,233.7,1771.3,243.1z"/>
	<path class="st2" d="M717.1,245.3c0-13.7,0-27.4,0-41.1c0-2,0.6-3.2,2.2-4.3c19.4-14.7,41.3-18.8,64.5-13
		c21.1,5.3,32.5,20.5,36.8,41.2c2.3,11.4,2.1,23-0.7,34.4c-5,20.2-18.6,31.4-38.5,35.4c-21.4,4.3-42.1,1.7-62-7.4
		c-1.7-0.8-2.2-1.7-2.2-3.5C717.2,273.1,717.1,259.2,717.1,245.3z M742.6,243.4c0,9.6,0,19.2,0,28.8c0,1.3-0.2,2.4,1.6,2.9
		c8.2,2.1,16.4,3.7,25,3c13-1.2,21.6-8.3,24.7-20.9c2.4-9.5,2.2-19.1-0.8-28.4c-3.8-11.9-12-19-24.6-20.4c-8.1-0.9-16,0.5-23.7,3.3
		c-1.8,0.6-2.3,1.5-2.3,3.3C742.6,224.4,742.6,233.9,742.6,243.4z"/>
	<path class="st2" d="M1655,237.2c-35.5,0-70.7,0-106.2,0c0.7-12.4,4-23.9,11.8-33.7c11.4-14.4,26.9-20,44.6-20.6
		c8.2-0.3,16.3,0.7,24,3.8c18,7.2,28.6,25,26.5,44.4C1655.6,233.1,1655.3,235.1,1655,237.2z M1578.4,221.4c17.5,0,34.7,0,51.8,0
		c1.1-7.6-1.5-13.1-7.8-16.8c-10.8-6.2-26.6-4.9-36.2,3.1C1582,211.2,1579.3,215.7,1578.4,221.4z"/>
	<path class="st13" d="M239.4,184.7c8.3,18,16.5,35.8,24.7,53.8c-16.6,0-32.8,0-49.7,0C222.8,220.5,231,202.8,239.4,184.7z"/>
	<path class="st14" d="M1771.3,243.1c0-9.4,0-18.8,0-28.2c0-1.8,0.5-2.7,2.3-3.3c6.6-2.3,13.3-3.6,20.3-3.4
		c13.2,0.3,23.2,7.6,27.3,20.2c3.1,9.6,3.3,19.3,0.9,29c-3.1,12.6-11.9,19.7-24.9,20.8c-8.3,0.7-16.2-0.9-24.1-3.1
		c-0.7-0.2-1.6-1.8-1.6-2.8C1771.3,262.5,1771.3,252.8,1771.3,243.1z"/>
	<path class="st13" d="M742.6,243.4c0-9.5,0-19,0-28.5c0-1.8,0.6-2.7,2.3-3.3c7.7-2.8,15.6-4.2,23.7-3.3
		c12.6,1.4,20.8,8.5,24.6,20.4c3,9.3,3.1,18.9,0.8,28.4c-3.1,12.6-11.8,19.8-24.7,20.9c-8.6,0.8-16.8-0.9-25-3
		c-1.7-0.4-1.6-1.6-1.6-2.9C742.6,262.6,742.6,253,742.6,243.4z"/>
	<path class="st15" d="M1578.4,221.4c0.9-5.7,3.6-10.1,7.8-13.7c9.6-8,25.3-9.4,36.2-3.1c6.4,3.7,9,9.2,7.8,16.8
		C1613.1,221.4,1595.9,221.4,1578.4,221.4z"/>
</g>
</svg>
